<svg viewBox="0 0 700 260" xmlns="http://www.w3.org/2000/svg" shape-rendering="crispEdges">
  <defs>
    <pattern id="grid1" width="14" height="14" patternUnits="userSpaceOnUse">
      <rect width="14" height="14" fill="#000000"/>
      <rect width="1" height="14" fill="#062012"/>
      <rect width="14" height="1" fill="#062012"/>
    </pattern>
  </defs>
  <rect x="0" y="0" width="700" height="260" rx="14" fill="url(#grid1)"/>
  <rect x="4" y="4" width="692" height="252" rx="10" fill="none" stroke="#00FF66" stroke-width="2" opacity="0.7"/>

  <text x="24" y="30" font-family="Courier New, monospace" font-size="15" fill="#00FF66" letter-spacing="3">01_PROFILE_CARD</text>

  <!-- left: dot-matrix portrait, glowing ring -->
  <g transform="translate(40,50)">
    <circle cx="95" cy="95" r="110" fill="none" stroke="#0DAB52" stroke-width="2" opacity="0.5"/>
    <circle cx="95" cy="95" r="110" fill="none" stroke="#00FF66" stroke-width="1" opacity="0.9">
      <animate attributeName="r" values="105;112;105" dur="3s" repeatCount="indefinite"/>
    </circle>
    <g transform="translate(9,9)">
      <circle cx="59.5" cy="17.5" r="2.6" fill="#00FF66"/>
    <circle cx="66.5" cy="17.5" r="2.6" fill="#00FF66"/>
    <circle cx="73.5" cy="17.5" r="2.6" fill="#00FF66"/>
    <circle cx="80.5" cy="17.5" r="2.6" fill="#00FF66"/>
    <circle cx="87.5" cy="17.5" r="2.6" fill="#00FF66"/>
    <circle cx="94.5" cy="17.5" r="2.6" fill="#00FF66"/>
    <circle cx="101.5" cy="17.5" r="2.6" fill="#00FF66"/>
    <circle cx="108.5" cy="17.5" r="2.6" fill="#00FF66"/>
    <circle cx="115.5" cy="17.5" r="2.6" fill="#00FF66"/>
    <circle cx="52.5" cy="24.5" r="2.6" fill="#00FF66"/>
    <circle cx="59.5" cy="24.5" r="2.6" fill="#00FF66"/>
    <circle cx="66.5" cy="24.5" r="2.6" fill="#00FF66"/>
    <circle cx="73.5" cy="24.5" r="2.6" fill="#00FF66"/>
    <circle cx="80.5" cy="24.5" r="2.6" fill="#00FF66"/>
    <circle cx="87.5" cy="24.5" r="2.6" fill="#00FF66"/>
    <circle cx="94.5" cy="24.5" r="2.6" fill="#00FF66"/>
    <circle cx="101.5" cy="24.5" r="2.6" fill="#00FF66"/>
    <circle cx="108.5" cy="24.5" r="2.6" fill="#00FF66"/>
    <circle cx="115.5" cy="24.5" r="2.6" fill="#00FF66"/>
    <circle cx="122.5" cy="24.5" r="2.6" fill="#00FF66"/>
    <circle cx="45.5" cy="31.5" r="2.6" fill="#00FF66"/>
    <circle cx="52.5" cy="31.5" r="2.6" fill="#00FF66"/>
    <circle cx="59.5" cy="31.5" r="2.6" fill="#00FF66"/>
    <circle cx="66.5" cy="31.5" r="2.6" fill="#00FF66"/>
    <circle cx="73.5" cy="31.5" r="2.6" fill="#00FF66"/>
    <circle cx="80.5" cy="31.5" r="2.6" fill="#00FF66"/>
    <circle cx="87.5" cy="31.5" r="2.6" fill="#00FF66"/>
    <circle cx="94.5" cy="31.5" r="2.6" fill="#00FF66"/>
    <circle cx="101.5" cy="31.5" r="2.6" fill="#00FF66"/>
    <circle cx="108.5" cy="31.5" r="2.6" fill="#00FF66"/>
    <circle cx="115.5" cy="31.5" r="2.6" fill="#00FF66"/>
    <circle cx="122.5" cy="31.5" r="2.6" fill="#00FF66"/>
    <circle cx="129.5" cy="31.5" r="2.6" fill="#00FF66"/>
    <circle cx="38.5" cy="38.5" r="2.6" fill="#00FF66"/>
    <circle cx="45.5" cy="38.5" r="2.6" fill="#00FF66"/>
    <circle cx="52.5" cy="38.5" r="2.6" fill="#00FF66"/>
    <circle cx="59.5" cy="38.5" r="2.6" fill="#00FF66"/>
    <circle cx="66.5" cy="38.5" r="2.6" fill="#00FF66"/>
    <circle cx="73.5" cy="38.5" r="2.6" fill="#00FF66"/>
    <circle cx="80.5" cy="38.5" r="2.6" fill="#00FF66"/>
    <circle cx="87.5" cy="38.5" r="2.6" fill="#00FF66"/>
    <circle cx="94.5" cy="38.5" r="2.6" fill="#00FF66"/>
    <circle cx="101.5" cy="38.5" r="2.6" fill="#00FF66"/>
    <circle cx="108.5" cy="38.5" r="2.6" fill="#00FF66"/>
    <circle cx="115.5" cy="38.5" r="2.6" fill="#00FF66"/>
    <circle cx="122.5" cy="38.5" r="2.6" fill="#00FF66"/>
    <circle cx="129.5" cy="38.5" r="2.6" fill="#00FF66"/>
    <circle cx="136.5" cy="38.5" r="2.6" fill="#00FF66"/>
    <circle cx="38.5" cy="45.5" r="2.6" fill="#00FF66"/>
    <circle cx="45.5" cy="45.5" r="2.6" fill="#00FF66"/>
    <circle cx="52.5" cy="45.5" r="2.6" fill="#00FF66"/>
    <circle cx="59.5" cy="45.5" r="2.6" fill="#00FF66"/>
    <circle cx="66.5" cy="45.5" r="2.6" fill="#00FF66"/>
    <circle cx="73.5" cy="45.5" r="2.6" fill="#00FF66"/>
    <circle cx="80.5" cy="45.5" r="2.6" fill="#00FF66"/>
    <circle cx="87.5" cy="45.5" r="2.6" fill="#00FF66"/>
    <circle cx="94.5" cy="45.5" r="2.6" fill="#00FF66"/>
    <circle cx="101.5" cy="45.5" r="2.6" fill="#00FF66"/>
    <circle cx="108.5" cy="45.5" r="2.6" fill="#00FF66"/>
    <circle cx="115.5" cy="45.5" r="2.6" fill="#00FF66"/>
    <circle cx="122.5" cy="45.5" r="2.6" fill="#00FF66"/>
    <circle cx="129.5" cy="45.5" r="2.6" fill="#00FF66"/>
    <circle cx="136.5" cy="45.5" r="2.6" fill="#00FF66"/>
    <circle cx="38.5" cy="52.5" r="2.6" fill="#00FF66"/>
    <circle cx="45.5" cy="52.5" r="2.6" fill="#00FF66"/>
    <circle cx="52.5" cy="52.5" r="2.6" fill="#00FF66"/>
    <circle cx="59.5" cy="52.5" r="2.6" fill="#00FF66"/>
    <circle cx="66.5" cy="52.5" r="2.6" fill="#00FF66"/>
    <circle cx="73.5" cy="52.5" r="2.6" fill="#00FF66"/>
    <circle cx="80.5" cy="52.5" r="2.6" fill="#00FF66"/>
    <circle cx="87.5" cy="52.5" r="2.6" fill="#00FF66"/>
    <circle cx="94.5" cy="52.5" r="2.6" fill="#00FF66"/>
    <circle cx="101.5" cy="52.5" r="2.6" fill="#00FF66"/>
    <circle cx="108.5" cy="52.5" r="2.6" fill="#00FF66"/>
    <circle cx="115.5" cy="52.5" r="2.6" fill="#00FF66"/>
    <circle cx="122.5" cy="52.5" r="2.6" fill="#00FF66"/>
    <circle cx="129.5" cy="52.5" r="2.6" fill="#00FF66"/>
    <circle cx="136.5" cy="52.5" r="2.6" fill="#00FF66"/>
    <circle cx="45.5" cy="59.5" r="2.6" fill="#00FF66"/>
    <circle cx="52.5" cy="59.5" r="2.6" fill="#00FF66"/>
    <circle cx="59.5" cy="59.5" r="2.6" fill="#00FF66"/>
    <circle cx="66.5" cy="59.5" r="2.6" fill="#00FF66"/>
    <circle cx="73.5" cy="59.5" r="2.6" fill="#00FF66"/>
    <circle cx="80.5" cy="59.5" r="2.6" fill="#00FF66"/>
    <circle cx="87.5" cy="59.5" r="2.6" fill="#00FF66"/>
    <circle cx="94.5" cy="59.5" r="2.6" fill="#00FF66"/>
    <circle cx="101.5" cy="59.5" r="2.6" fill="#00FF66"/>
    <circle cx="108.5" cy="59.5" r="2.6" fill="#00FF66"/>
    <circle cx="115.5" cy="59.5" r="2.6" fill="#00FF66"/>
    <circle cx="122.5" cy="59.5" r="2.6" fill="#00FF66"/>
    <circle cx="129.5" cy="59.5" r="2.6" fill="#00FF66"/>
    <circle cx="52.5" cy="66.5" r="2.6" fill="#00FF66"/>
    <circle cx="59.5" cy="66.5" r="2.6" fill="#00FF66"/>
    <circle cx="66.5" cy="66.5" r="2.6" fill="#00FF66"/>
    <circle cx="73.5" cy="66.5" r="2.6" fill="#00FF66"/>
    <circle cx="80.5" cy="66.5" r="2.6" fill="#00FF66"/>
    <circle cx="87.5" cy="66.5" r="2.6" fill="#00FF66"/>
    <circle cx="94.5" cy="66.5" r="2.6" fill="#00FF66"/>
    <circle cx="101.5" cy="66.5" r="2.6" fill="#00FF66"/>
    <circle cx="108.5" cy="66.5" r="2.6" fill="#00FF66"/>
    <circle cx="115.5" cy="66.5" r="2.6" fill="#00FF66"/>
    <circle cx="122.5" cy="66.5" r="2.6" fill="#00FF66"/>
    <circle cx="59.5" cy="73.5" r="2.6" fill="#00FF66"/>
    <circle cx="66.5" cy="73.5" r="2.6" fill="#00FF66"/>
    <circle cx="73.5" cy="73.5" r="2.6" fill="#00FF66"/>
    <circle cx="80.5" cy="73.5" r="2.6" fill="#00FF66"/>
    <circle cx="87.5" cy="73.5" r="2.6" fill="#00FF66"/>
    <circle cx="94.5" cy="73.5" r="2.6" fill="#00FF66"/>
    <circle cx="101.5" cy="73.5" r="2.6" fill="#00FF66"/>
    <circle cx="108.5" cy="73.5" r="2.6" fill="#00FF66"/>
    <circle cx="115.5" cy="73.5" r="2.6" fill="#00FF66"/>
    <circle cx="59.5" cy="80.5" r="2.6" fill="#00FF66"/>
    <circle cx="66.5" cy="80.5" r="2.6" fill="#00FF66"/>
    <circle cx="73.5" cy="80.5" r="2.6" fill="#00FF66"/>
    <circle cx="80.5" cy="80.5" r="2.6" fill="#00FF66"/>
    <circle cx="87.5" cy="80.5" r="2.6" fill="#00FF66"/>
    <circle cx="94.5" cy="80.5" r="2.6" fill="#00FF66"/>
    <circle cx="101.5" cy="80.5" r="2.6" fill="#00FF66"/>
    <circle cx="108.5" cy="80.5" r="2.6" fill="#00FF66"/>
    <circle cx="115.5" cy="80.5" r="2.6" fill="#00FF66"/>
    <circle cx="122.5" cy="80.5" r="2.6" fill="#00FF66"/>
    <circle cx="52.5" cy="87.5" r="2.6" fill="#00FF66"/>
    <circle cx="59.5" cy="87.5" r="2.6" fill="#00FF66"/>
    <circle cx="66.5" cy="87.5" r="2.6" fill="#00FF66"/>
    <circle cx="73.5" cy="87.5" r="2.6" fill="#00FF66"/>
    <circle cx="80.5" cy="87.5" r="2.6" fill="#00FF66"/>
    <circle cx="87.5" cy="87.5" r="2.6" fill="#00FF66"/>
    <circle cx="94.5" cy="87.5" r="2.6" fill="#00FF66"/>
    <circle cx="101.5" cy="87.5" r="2.6" fill="#00FF66"/>
    <circle cx="108.5" cy="87.5" r="2.6" fill="#00FF66"/>
    <circle cx="115.5" cy="87.5" r="2.6" fill="#00FF66"/>
    <circle cx="122.5" cy="87.5" r="2.6" fill="#00FF66"/>
    <circle cx="129.5" cy="87.5" r="2.6" fill="#00FF66"/>
    <circle cx="45.5" cy="94.5" r="2.6" fill="#00FF66"/>
    <circle cx="52.5" cy="94.5" r="2.6" fill="#00FF66"/>
    <circle cx="59.5" cy="94.5" r="2.6" fill="#00FF66"/>
    <circle cx="66.5" cy="94.5" r="2.6" fill="#00FF66"/>
    <circle cx="73.5" cy="94.5" r="2.6" fill="#00FF66"/>
    <circle cx="80.5" cy="94.5" r="2.6" fill="#00FF66"/>
    <circle cx="87.5" cy="94.5" r="2.6" fill="#00FF66"/>
    <circle cx="94.5" cy="94.5" r="2.6" fill="#00FF66"/>
    <circle cx="101.5" cy="94.5" r="2.6" fill="#00FF66"/>
    <circle cx="108.5" cy="94.5" r="2.6" fill="#00FF66"/>
    <circle cx="115.5" cy="94.5" r="2.6" fill="#00FF66"/>
    <circle cx="122.5" cy="94.5" r="2.6" fill="#00FF66"/>
    <circle cx="129.5" cy="94.5" r="2.6" fill="#00FF66"/>
    <circle cx="136.5" cy="94.5" r="2.6" fill="#00FF66"/>
    <circle cx="38.5" cy="101.5" r="2.6" fill="#00FF66"/>
    <circle cx="45.5" cy="101.5" r="2.6" fill="#00FF66"/>
    <circle cx="52.5" cy="101.5" r="2.6" fill="#00FF66"/>
    <circle cx="59.5" cy="101.5" r="2.6" fill="#00FF66"/>
    <circle cx="66.5" cy="101.5" r="2.6" fill="#00FF66"/>
    <circle cx="73.5" cy="101.5" r="2.6" fill="#00FF66"/>
    <circle cx="80.5" cy="101.5" r="2.6" fill="#00FF66"/>
    <circle cx="87.5" cy="101.5" r="2.6" fill="#00FF66"/>
    <circle cx="94.5" cy="101.5" r="2.6" fill="#00FF66"/>
    <circle cx="101.5" cy="101.5" r="2.6" fill="#00FF66"/>
    <circle cx="108.5" cy="101.5" r="2.6" fill="#00FF66"/>
    <circle cx="115.5" cy="101.5" r="2.6" fill="#00FF66"/>
    <circle cx="122.5" cy="101.5" r="2.6" fill="#00FF66"/>
    <circle cx="129.5" cy="101.5" r="2.6" fill="#00FF66"/>
    <circle cx="136.5" cy="101.5" r="2.6" fill="#00FF66"/>
    <circle cx="143.5" cy="101.5" r="2.6" fill="#00FF66"/>
    <circle cx="31.5" cy="108.5" r="2.6" fill="#00FF66"/>
    <circle cx="38.5" cy="108.5" r="2.6" fill="#00FF66"/>
    <circle cx="45.5" cy="108.5" r="2.6" fill="#00FF66"/>
    <circle cx="52.5" cy="108.5" r="2.6" fill="#00FF66"/>
    <circle cx="59.5" cy="108.5" r="2.6" fill="#00FF66"/>
    <circle cx="66.5" cy="108.5" r="2.6" fill="#00FF66"/>
    <circle cx="73.5" cy="108.5" r="2.6" fill="#00FF66"/>
    <circle cx="80.5" cy="108.5" r="2.6" fill="#00FF66"/>
    <circle cx="87.5" cy="108.5" r="2.6" fill="#00FF66"/>
    <circle cx="94.5" cy="108.5" r="2.6" fill="#00FF66"/>
    <circle cx="101.5" cy="108.5" r="2.6" fill="#00FF66"/>
    <circle cx="108.5" cy="108.5" r="2.6" fill="#00FF66"/>
    <circle cx="115.5" cy="108.5" r="2.6" fill="#00FF66"/>
    <circle cx="122.5" cy="108.5" r="2.6" fill="#00FF66"/>
    <circle cx="129.5" cy="108.5" r="2.6" fill="#00FF66"/>
    <circle cx="136.5" cy="108.5" r="2.6" fill="#00FF66"/>
    <circle cx="143.5" cy="108.5" r="2.6" fill="#00FF66"/>
    <circle cx="150.5" cy="108.5" r="2.6" fill="#00FF66"/>
    <circle cx="24.5" cy="115.5" r="2.6" fill="#00FF66"/>
    <circle cx="31.5" cy="115.5" r="2.6" fill="#00FF66"/>
    <circle cx="38.5" cy="115.5" r="2.6" fill="#00FF66"/>
    <circle cx="45.5" cy="115.5" r="2.6" fill="#00FF66"/>
    <circle cx="52.5" cy="115.5" r="2.6" fill="#00FF66"/>
    <circle cx="59.5" cy="115.5" r="2.6" fill="#00FF66"/>
    <circle cx="66.5" cy="115.5" r="2.6" fill="#00FF66"/>
    <circle cx="73.5" cy="115.5" r="2.6" fill="#00FF66"/>
    <circle cx="80.5" cy="115.5" r="2.6" fill="#00FF66"/>
    <circle cx="87.5" cy="115.5" r="2.6" fill="#00FF66"/>
    <circle cx="94.5" cy="115.5" r="2.6" fill="#00FF66"/>
    <circle cx="101.5" cy="115.5" r="2.6" fill="#00FF66"/>
    <circle cx="108.5" cy="115.5" r="2.6" fill="#00FF66"/>
    <circle cx="115.5" cy="115.5" r="2.6" fill="#00FF66"/>
    <circle cx="122.5" cy="115.5" r="2.6" fill="#00FF66"/>
    <circle cx="129.5" cy="115.5" r="2.6" fill="#00FF66"/>
    <circle cx="136.5" cy="115.5" r="2.6" fill="#00FF66"/>
    <circle cx="143.5" cy="115.5" r="2.6" fill="#00FF66"/>
    <circle cx="150.5" cy="115.5" r="2.6" fill="#00FF66"/>
    <circle cx="157.5" cy="115.5" r="2.6" fill="#00FF66"/>
    <circle cx="17.5" cy="122.5" r="2.6" fill="#00FF66"/>
    <circle cx="24.5" cy="122.5" r="2.6" fill="#00FF66"/>
    <circle cx="31.5" cy="122.5" r="2.6" fill="#00FF66"/>
    <circle cx="38.5" cy="122.5" r="2.6" fill="#00FF66"/>
    <circle cx="45.5" cy="122.5" r="2.6" fill="#00FF66"/>
    <circle cx="52.5" cy="122.5" r="2.6" fill="#00FF66"/>
    <circle cx="59.5" cy="122.5" r="2.6" fill="#00FF66"/>
    <circle cx="66.5" cy="122.5" r="2.6" fill="#00FF66"/>
    <circle cx="73.5" cy="122.5" r="2.6" fill="#00FF66"/>
    <circle cx="80.5" cy="122.5" r="2.6" fill="#00FF66"/>
    <circle cx="87.5" cy="122.5" r="2.6" fill="#00FF66"/>
    <circle cx="94.5" cy="122.5" r="2.6" fill="#00FF66"/>
    <circle cx="101.5" cy="122.5" r="2.6" fill="#00FF66"/>
    <circle cx="108.5" cy="122.5" r="2.6" fill="#00FF66"/>
    <circle cx="115.5" cy="122.5" r="2.6" fill="#00FF66"/>
    <circle cx="122.5" cy="122.5" r="2.6" fill="#00FF66"/>
    <circle cx="129.5" cy="122.5" r="2.6" fill="#00FF66"/>
    <circle cx="136.5" cy="122.5" r="2.6" fill="#00FF66"/>
    <circle cx="143.5" cy="122.5" r="2.6" fill="#00FF66"/>
    <circle cx="150.5" cy="122.5" r="2.6" fill="#00FF66"/>
    <circle cx="157.5" cy="122.5" r="2.6" fill="#00FF66"/>
    <circle cx="164.5" cy="122.5" r="2.6" fill="#00FF66"/>
    <circle cx="10.5" cy="129.5" r="2.6" fill="#00FF66"/>
    <circle cx="17.5" cy="129.5" r="2.6" fill="#00FF66"/>
    <circle cx="24.5" cy="129.5" r="2.6" fill="#00FF66"/>
    <circle cx="31.5" cy="129.5" r="2.6" fill="#00FF66"/>
    <circle cx="38.5" cy="129.5" r="2.6" fill="#00FF66"/>
    <circle cx="45.5" cy="129.5" r="2.6" fill="#00FF66"/>
    <circle cx="52.5" cy="129.5" r="2.6" fill="#00FF66"/>
    <circle cx="59.5" cy="129.5" r="2.6" fill="#00FF66"/>
    <circle cx="66.5" cy="129.5" r="2.6" fill="#00FF66"/>
    <circle cx="73.5" cy="129.5" r="2.6" fill="#00FF66"/>
    <circle cx="80.5" cy="129.5" r="2.6" fill="#00FF66"/>
    <circle cx="87.5" cy="129.5" r="2.6" fill="#00FF66"/>
    <circle cx="94.5" cy="129.5" r="2.6" fill="#00FF66"/>
    <circle cx="101.5" cy="129.5" r="2.6" fill="#00FF66"/>
    <circle cx="108.5" cy="129.5" r="2.6" fill="#00FF66"/>
    <circle cx="115.5" cy="129.5" r="2.6" fill="#00FF66"/>
    <circle cx="122.5" cy="129.5" r="2.6" fill="#00FF66"/>
    <circle cx="129.5" cy="129.5" r="2.6" fill="#00FF66"/>
    <circle cx="136.5" cy="129.5" r="2.6" fill="#00FF66"/>
    <circle cx="143.5" cy="129.5" r="2.6" fill="#00FF66"/>
    <circle cx="150.5" cy="129.5" r="2.6" fill="#00FF66"/>
    <circle cx="157.5" cy="129.5" r="2.6" fill="#00FF66"/>
    <circle cx="164.5" cy="129.5" r="2.6" fill="#00FF66"/>
    <circle cx="171.5" cy="129.5" r="2.6" fill="#00FF66"/>
    <circle cx="3.5" cy="136.5" r="2.6" fill="#00FF66"/>
    <circle cx="10.5" cy="136.5" r="2.6" fill="#00FF66"/>
    <circle cx="17.5" cy="136.5" r="2.6" fill="#00FF66"/>
    <circle cx="24.5" cy="136.5" r="2.6" fill="#00FF66"/>
    <circle cx="31.5" cy="136.5" r="2.6" fill="#00FF66"/>
    <circle cx="38.5" cy="136.5" r="2.6" fill="#00FF66"/>
    <circle cx="45.5" cy="136.5" r="2.6" fill="#00FF66"/>
    <circle cx="52.5" cy="136.5" r="2.6" fill="#00FF66"/>
    <circle cx="59.5" cy="136.5" r="2.6" fill="#00FF66"/>
    <circle cx="66.5" cy="136.5" r="2.6" fill="#00FF66"/>
    <circle cx="73.5" cy="136.5" r="2.6" fill="#00FF66"/>
    <circle cx="80.5" cy="136.5" r="2.6" fill="#00FF66"/>
    <circle cx="87.5" cy="136.5" r="2.6" fill="#00FF66"/>
    <circle cx="94.5" cy="136.5" r="2.6" fill="#00FF66"/>
    <circle cx="101.5" cy="136.5" r="2.6" fill="#00FF66"/>
    <circle cx="108.5" cy="136.5" r="2.6" fill="#00FF66"/>
    <circle cx="115.5" cy="136.5" r="2.6" fill="#00FF66"/>
    <circle cx="122.5" cy="136.5" r="2.6" fill="#00FF66"/>
    <circle cx="129.5" cy="136.5" r="2.6" fill="#00FF66"/>
    <circle cx="136.5" cy="136.5" r="2.6" fill="#00FF66"/>
    <circle cx="143.5" cy="136.5" r="2.6" fill="#00FF66"/>
    <circle cx="150.5" cy="136.5" r="2.6" fill="#00FF66"/>
    <circle cx="157.5" cy="136.5" r="2.6" fill="#00FF66"/>
    <circle cx="164.5" cy="136.5" r="2.6" fill="#00FF66"/>
    <circle cx="171.5" cy="136.5" r="2.6" fill="#00FF66"/>
    <circle cx="178.5" cy="136.5" r="2.6" fill="#00FF66"/>
    <circle cx="3.5" cy="143.5" r="2.6" fill="#00FF66"/>
    <circle cx="10.5" cy="143.5" r="2.6" fill="#00FF66"/>
    <circle cx="17.5" cy="143.5" r="2.6" fill="#00FF66"/>
    <circle cx="24.5" cy="143.5" r="2.6" fill="#00FF66"/>
    <circle cx="31.5" cy="143.5" r="2.6" fill="#00FF66"/>
    <circle cx="38.5" cy="143.5" r="2.6" fill="#00FF66"/>
    <circle cx="45.5" cy="143.5" r="2.6" fill="#00FF66"/>
    <circle cx="52.5" cy="143.5" r="2.6" fill="#00FF66"/>
    <circle cx="59.5" cy="143.5" r="2.6" fill="#00FF66"/>
    <circle cx="66.5" cy="143.5" r="2.6" fill="#00FF66"/>
    <circle cx="73.5" cy="143.5" r="2.6" fill="#00FF66"/>
    <circle cx="80.5" cy="143.5" r="2.6" fill="#00FF66"/>
    <circle cx="87.5" cy="143.5" r="2.6" fill="#00FF66"/>
    <circle cx="94.5" cy="143.5" r="2.6" fill="#00FF66"/>
    <circle cx="101.5" cy="143.5" r="2.6" fill="#00FF66"/>
    <circle cx="108.5" cy="143.5" r="2.6" fill="#00FF66"/>
    <circle cx="115.5" cy="143.5" r="2.6" fill="#00FF66"/>
    <circle cx="122.5" cy="143.5" r="2.6" fill="#00FF66"/>
    <circle cx="129.5" cy="143.5" r="2.6" fill="#00FF66"/>
    <circle cx="136.5" cy="143.5" r="2.6" fill="#00FF66"/>
    <circle cx="143.5" cy="143.5" r="2.6" fill="#00FF66"/>
    <circle cx="150.5" cy="143.5" r="2.6" fill="#00FF66"/>
    <circle cx="157.5" cy="143.5" r="2.6" fill="#00FF66"/>
    <circle cx="164.5" cy="143.5" r="2.6" fill="#00FF66"/>
    <circle cx="171.5" cy="143.5" r="2.6" fill="#00FF66"/>
    <circle cx="178.5" cy="143.5" r="2.6" fill="#00FF66"/>
    <circle cx="3.5" cy="150.5" r="2.6" fill="#00FF66"/>
    <circle cx="10.5" cy="150.5" r="2.6" fill="#00FF66"/>
    <circle cx="17.5" cy="150.5" r="2.6" fill="#00FF66"/>
    <circle cx="24.5" cy="150.5" r="2.6" fill="#00FF66"/>
    <circle cx="31.5" cy="150.5" r="2.6" fill="#00FF66"/>
    <circle cx="38.5" cy="150.5" r="2.6" fill="#00FF66"/>
    <circle cx="45.5" cy="150.5" r="2.6" fill="#00FF66"/>
    <circle cx="52.5" cy="150.5" r="2.6" fill="#00FF66"/>
    <circle cx="59.5" cy="150.5" r="2.6" fill="#00FF66"/>
    <circle cx="66.5" cy="150.5" r="2.6" fill="#00FF66"/>
    <circle cx="73.5" cy="150.5" r="2.6" fill="#00FF66"/>
    <circle cx="80.5" cy="150.5" r="2.6" fill="#00FF66"/>
    <circle cx="87.5" cy="150.5" r="2.6" fill="#00FF66"/>
    <circle cx="94.5" cy="150.5" r="2.6" fill="#00FF66"/>
    <circle cx="101.5" cy="150.5" r="2.6" fill="#00FF66"/>
    <circle cx="108.5" cy="150.5" r="2.6" fill="#00FF66"/>
    <circle cx="115.5" cy="150.5" r="2.6" fill="#00FF66"/>
    <circle cx="122.5" cy="150.5" r="2.6" fill="#00FF66"/>
    <circle cx="129.5" cy="150.5" r="2.6" fill="#00FF66"/>
    <circle cx="136.5" cy="150.5" r="2.6" fill="#00FF66"/>
    <circle cx="143.5" cy="150.5" r="2.6" fill="#00FF66"/>
    <circle cx="150.5" cy="150.5" r="2.6" fill="#00FF66"/>
    <circle cx="157.5" cy="150.5" r="2.6" fill="#00FF66"/>
    <circle cx="164.5" cy="150.5" r="2.6" fill="#00FF66"/>
    <circle cx="171.5" cy="150.5" r="2.6" fill="#00FF66"/>
    <circle cx="178.5" cy="150.5" r="2.6" fill="#00FF66"/>
    <circle cx="3.5" cy="157.5" r="2.6" fill="#00FF66"/>
    <circle cx="10.5" cy="157.5" r="2.6" fill="#00FF66"/>
    <circle cx="17.5" cy="157.5" r="2.6" fill="#00FF66"/>
    <circle cx="24.5" cy="157.5" r="2.6" fill="#00FF66"/>
    <circle cx="31.5" cy="157.5" r="2.6" fill="#00FF66"/>
    <circle cx="38.5" cy="157.5" r="2.6" fill="#00FF66"/>
    <circle cx="45.5" cy="157.5" r="2.6" fill="#00FF66"/>
    <circle cx="52.5" cy="157.5" r="2.6" fill="#00FF66"/>
    <circle cx="59.5" cy="157.5" r="2.6" fill="#00FF66"/>
    <circle cx="66.5" cy="157.5" r="2.6" fill="#00FF66"/>
    <circle cx="73.5" cy="157.5" r="2.6" fill="#00FF66"/>
    <circle cx="80.5" cy="157.5" r="2.6" fill="#00FF66"/>
    <circle cx="87.5" cy="157.5" r="2.6" fill="#00FF66"/>
    <circle cx="94.5" cy="157.5" r="2.6" fill="#00FF66"/>
    <circle cx="101.5" cy="157.5" r="2.6" fill="#00FF66"/>
    <circle cx="108.5" cy="157.5" r="2.6" fill="#00FF66"/>
    <circle cx="115.5" cy="157.5" r="2.6" fill="#00FF66"/>
    <circle cx="122.5" cy="157.5" r="2.6" fill="#00FF66"/>
    <circle cx="129.5" cy="157.5" r="2.6" fill="#00FF66"/>
    <circle cx="136.5" cy="157.5" r="2.6" fill="#00FF66"/>
    <circle cx="143.5" cy="157.5" r="2.6" fill="#00FF66"/>
    <circle cx="150.5" cy="157.5" r="2.6" fill="#00FF66"/>
    <circle cx="157.5" cy="157.5" r="2.6" fill="#00FF66"/>
    <circle cx="164.5" cy="157.5" r="2.6" fill="#00FF66"/>
    <circle cx="171.5" cy="157.5" r="2.6" fill="#00FF66"/>
    <circle cx="178.5" cy="157.5" r="2.6" fill="#00FF66"/>
    <circle cx="3.5" cy="164.5" r="2.6" fill="#00FF66"/>
    <circle cx="10.5" cy="164.5" r="2.6" fill="#00FF66"/>
    <circle cx="17.5" cy="164.5" r="2.6" fill="#00FF66"/>
    <circle cx="24.5" cy="164.5" r="2.6" fill="#00FF66"/>
    <circle cx="31.5" cy="164.5" r="2.6" fill="#00FF66"/>
    <circle cx="38.5" cy="164.5" r="2.6" fill="#00FF66"/>
    <circle cx="45.5" cy="164.5" r="2.6" fill="#00FF66"/>
    <circle cx="52.5" cy="164.5" r="2.6" fill="#00FF66"/>
    <circle cx="59.5" cy="164.5" r="2.6" fill="#00FF66"/>
    <circle cx="66.5" cy="164.5" r="2.6" fill="#00FF66"/>
    <circle cx="73.5" cy="164.5" r="2.6" fill="#00FF66"/>
    <circle cx="80.5" cy="164.5" r="2.6" fill="#00FF66"/>
    <circle cx="87.5" cy="164.5" r="2.6" fill="#00FF66"/>
    <circle cx="94.5" cy="164.5" r="2.6" fill="#00FF66"/>
    <circle cx="101.5" cy="164.5" r="2.6" fill="#00FF66"/>
    <circle cx="108.5" cy="164.5" r="2.6" fill="#00FF66"/>
    <circle cx="115.5" cy="164.5" r="2.6" fill="#00FF66"/>
    <circle cx="122.5" cy="164.5" r="2.6" fill="#00FF66"/>
    <circle cx="129.5" cy="164.5" r="2.6" fill="#00FF66"/>
    <circle cx="136.5" cy="164.5" r="2.6" fill="#00FF66"/>
    <circle cx="143.5" cy="164.5" r="2.6" fill="#00FF66"/>
    <circle cx="150.5" cy="164.5" r="2.6" fill="#00FF66"/>
    <circle cx="157.5" cy="164.5" r="2.6" fill="#00FF66"/>
    <circle cx="164.5" cy="164.5" r="2.6" fill="#00FF66"/>
    <circle cx="171.5" cy="164.5" r="2.6" fill="#00FF66"/>
    <circle cx="178.5" cy="164.5" r="2.6" fill="#00FF66"/>
    <circle cx="3.5" cy="171.5" r="2.6" fill="#00FF66"/>
    <circle cx="10.5" cy="171.5" r="2.6" fill="#00FF66"/>
    <circle cx="17.5" cy="171.5" r="2.6" fill="#00FF66"/>
    <circle cx="24.5" cy="171.5" r="2.6" fill="#00FF66"/>
    <circle cx="31.5" cy="171.5" r="2.6" fill="#00FF66"/>
    <circle cx="38.5" cy="171.5" r="2.6" fill="#00FF66"/>
    <circle cx="45.5" cy="171.5" r="2.6" fill="#00FF66"/>
    <circle cx="52.5" cy="171.5" r="2.6" fill="#00FF66"/>
    <circle cx="59.5" cy="171.5" r="2.6" fill="#00FF66"/>
    <circle cx="66.5" cy="171.5" r="2.6" fill="#00FF66"/>
    <circle cx="73.5" cy="171.5" r="2.6" fill="#00FF66"/>
    <circle cx="80.5" cy="171.5" r="2.6" fill="#00FF66"/>
    <circle cx="87.5" cy="171.5" r="2.6" fill="#00FF66"/>
    <circle cx="94.5" cy="171.5" r="2.6" fill="#00FF66"/>
    <circle cx="101.5" cy="171.5" r="2.6" fill="#00FF66"/>
    <circle cx="108.5" cy="171.5" r="2.6" fill="#00FF66"/>
    <circle cx="115.5" cy="171.5" r="2.6" fill="#00FF66"/>
    <circle cx="122.5" cy="171.5" r="2.6" fill="#00FF66"/>
    <circle cx="129.5" cy="171.5" r="2.6" fill="#00FF66"/>
    <circle cx="136.5" cy="171.5" r="2.6" fill="#00FF66"/>
    <circle cx="143.5" cy="171.5" r="2.6" fill="#00FF66"/>
    <circle cx="150.5" cy="171.5" r="2.6" fill="#00FF66"/>
    <circle cx="157.5" cy="171.5" r="2.6" fill="#00FF66"/>
    <circle cx="164.5" cy="171.5" r="2.6" fill="#00FF66"/>
    <circle cx="171.5" cy="171.5" r="2.6" fill="#00FF66"/>
    <circle cx="178.5" cy="171.5" r="2.6" fill="#00FF66"/>
    <circle cx="3.5" cy="178.5" r="2.6" fill="#00FF66"/>
    <circle cx="10.5" cy="178.5" r="2.6" fill="#00FF66"/>
    <circle cx="17.5" cy="178.5" r="2.6" fill="#00FF66"/>
    <circle cx="24.5" cy="178.5" r="2.6" fill="#00FF66"/>
    <circle cx="31.5" cy="178.5" r="2.6" fill="#00FF66"/>
    <circle cx="38.5" cy="178.5" r="2.6" fill="#00FF66"/>
    <circle cx="45.5" cy="178.5" r="2.6" fill="#00FF66"/>
    <circle cx="52.5" cy="178.5" r="2.6" fill="#00FF66"/>
    <circle cx="59.5" cy="178.5" r="2.6" fill="#00FF66"/>
    <circle cx="66.5" cy="178.5" r="2.6" fill="#00FF66"/>
    <circle cx="73.5" cy="178.5" r="2.6" fill="#00FF66"/>
    <circle cx="80.5" cy="178.5" r="2.6" fill="#00FF66"/>
    <circle cx="87.5" cy="178.5" r="2.6" fill="#00FF66"/>
    <circle cx="94.5" cy="178.5" r="2.6" fill="#00FF66"/>
    <circle cx="101.5" cy="178.5" r="2.6" fill="#00FF66"/>
    <circle cx="108.5" cy="178.5" r="2.6" fill="#00FF66"/>
    <circle cx="115.5" cy="178.5" r="2.6" fill="#00FF66"/>
    <circle cx="122.5" cy="178.5" r="2.6" fill="#00FF66"/>
    <circle cx="129.5" cy="178.5" r="2.6" fill="#00FF66"/>
    <circle cx="136.5" cy="178.5" r="2.6" fill="#00FF66"/>
    <circle cx="143.5" cy="178.5" r="2.6" fill="#00FF66"/>
    <circle cx="150.5" cy="178.5" r="2.6" fill="#00FF66"/>
    <circle cx="157.5" cy="178.5" r="2.6" fill="#00FF66"/>
    <circle cx="164.5" cy="178.5" r="2.6" fill="#00FF66"/>
    <circle cx="171.5" cy="178.5" r="2.6" fill="#00FF66"/>
    <circle cx="178.5" cy="178.5" r="2.6" fill="#00FF66"/>
    </g>
  </g>

  <!-- divider -->
  <line x1="320" y1="40" x2="320" y2="230" stroke="#0DAB52" stroke-width="1" opacity="0.5"/>

  <!-- right: skill bars -->
  <text x="340" y="40" font-family="Courier New, monospace" font-size="12" fill="#00FF66">Python / AI Integration</text>
    <rect x="340" y="46" width="4" height="10" fill="#00FF66"/>
    <rect x="346" y="46" width="4" height="10" fill="#00FF66"/>
    <rect x="352" y="46" width="4" height="10" fill="#00FF66"/>
    <rect x="358" y="46" width="4" height="10" fill="#00FF66"/>
    <rect x="364" y="46" width="4" height="10" fill="#00FF66"/>
    <rect x="370" y="46" width="4" height="10" fill="#00FF66"/>
    <rect x="376" y="46" width="4" height="10" fill="#00FF66"/>
    <rect x="382" y="46" width="4" height="10" fill="#00FF66"/>
    <rect x="388" y="46" width="4" height="10" fill="#00FF66"/>
    <rect x="394" y="46" width="4" height="10" fill="#00FF66"/>
    <rect x="400" y="46" width="4" height="10" fill="#00FF66"/>
    <rect x="406" y="46" width="4" height="10" fill="#00FF66"/>
    <rect x="412" y="46" width="4" height="10" fill="#00FF66"/>
    <rect x="418" y="46" width="4" height="10" fill="#00FF66"/>
    <rect x="424" y="46" width="4" height="10" fill="#00FF66"/>
    <rect x="430" y="46" width="4" height="10" fill="#00FF66"/>
    <rect x="436" y="46" width="4" height="10" fill="#00FF66"/>
    <rect x="442" y="46" width="4" height="10" fill="#00FF66"/>
    <rect x="448" y="46" width="4" height="10" fill="#00FF66"/>
    <rect x="454" y="46" width="4" height="10" fill="#00FF66"/>
    <rect x="460" y="46" width="4" height="10" fill="#00FF66"/>
    <rect x="466" y="46" width="4" height="10" fill="#00FF66"/>
    <rect x="472" y="46" width="4" height="10" fill="#00FF66"/>
    <rect x="478" y="46" width="4" height="10" fill="#00FF66"/>
    <rect x="484" y="46" width="4" height="10" fill="#00FF66"/>
    <rect x="490" y="46" width="4" height="10" fill="#00FF66"/>
    <rect x="496" y="46" width="4" height="10" fill="#00FF66"/>
    <rect x="502" y="46" width="4" height="10" fill="#00FF66"/>
    <rect x="508" y="46" width="4" height="10" fill="#00FF66"/>
    <rect x="514" y="46" width="4" height="10" fill="#00FF66"/>
    <rect x="520" y="46" width="4" height="10" fill="#00FF66"/>
    <rect x="526" y="46" width="4" height="10" fill="#00FF66"/>
    <rect x="532" y="46" width="4" height="10" fill="#00FF66"/>
    <rect x="538" y="46" width="4" height="10" fill="#00FF66"/>
    <rect x="544" y="46" width="4" height="10" fill="#00FF66"/>
    <rect x="550" y="46" width="4" height="10" fill="#00FF66"/>
    <rect x="556" y="46" width="4" height="10" fill="#00FF66"/>
    <rect x="562" y="46" width="4" height="10" fill="#00FF66"/>
    <rect x="568" y="46" width="4" height="10" fill="#00FF66"/>
    <rect x="574" y="46" width="4" height="10" fill="#00FF66"/>
    <rect x="580" y="46" width="4" height="10" fill="#00FF66"/>
    <rect x="586" y="46" width="4" height="10" fill="#00FF66"/>
    <rect x="592" y="46" width="4" height="10" fill="#0a3d1f"/>
    <rect x="598" y="46" width="4" height="10" fill="#0a3d1f"/>
    <rect x="604" y="46" width="4" height="10" fill="#0a3d1f"/>
    <rect x="610" y="46" width="4" height="10" fill="#0a3d1f"/>
    <text x="340" y="72" font-family="Courier New, monospace" font-size="12" fill="#00FF66">React + Vite</text>
    <rect x="340" y="78" width="4" height="10" fill="#00FF66"/>
    <rect x="346" y="78" width="4" height="10" fill="#00FF66"/>
    <rect x="352" y="78" width="4" height="10" fill="#00FF66"/>
    <rect x="358" y="78" width="4" height="10" fill="#00FF66"/>
    <rect x="364" y="78" width="4" height="10" fill="#00FF66"/>
    <rect x="370" y="78" width="4" height="10" fill="#00FF66"/>
    <rect x="376" y="78" width="4" height="10" fill="#00FF66"/>
    <rect x="382" y="78" width="4" height="10" fill="#00FF66"/>
    <rect x="388" y="78" width="4" height="10" fill="#00FF66"/>
    <rect x="394" y="78" width="4" height="10" fill="#00FF66"/>
    <rect x="400" y="78" width="4" height="10" fill="#00FF66"/>
    <rect x="406" y="78" width="4" height="10" fill="#00FF66"/>
    <rect x="412" y="78" width="4" height="10" fill="#00FF66"/>
    <rect x="418" y="78" width="4" height="10" fill="#00FF66"/>
    <rect x="424" y="78" width="4" height="10" fill="#00FF66"/>
    <rect x="430" y="78" width="4" height="10" fill="#00FF66"/>
    <rect x="436" y="78" width="4" height="10" fill="#00FF66"/>
    <rect x="442" y="78" width="4" height="10" fill="#00FF66"/>
    <rect x="448" y="78" width="4" height="10" fill="#00FF66"/>
    <rect x="454" y="78" width="4" height="10" fill="#00FF66"/>
    <rect x="460" y="78" width="4" height="10" fill="#00FF66"/>
    <rect x="466" y="78" width="4" height="10" fill="#00FF66"/>
    <rect x="472" y="78" width="4" height="10" fill="#00FF66"/>
    <rect x="478" y="78" width="4" height="10" fill="#00FF66"/>
    <rect x="484" y="78" width="4" height="10" fill="#00FF66"/>
    <rect x="490" y="78" width="4" height="10" fill="#00FF66"/>
    <rect x="496" y="78" width="4" height="10" fill="#00FF66"/>
    <rect x="502" y="78" width="4" height="10" fill="#00FF66"/>
    <rect x="508" y="78" width="4" height="10" fill="#00FF66"/>
    <rect x="514" y="78" width="4" height="10" fill="#00FF66"/>
    <rect x="520" y="78" width="4" height="10" fill="#00FF66"/>
    <rect x="526" y="78" width="4" height="10" fill="#00FF66"/>
    <rect x="532" y="78" width="4" height="10" fill="#00FF66"/>
    <rect x="538" y="78" width="4" height="10" fill="#00FF66"/>
    <rect x="544" y="78" width="4" height="10" fill="#00FF66"/>
    <rect x="550" y="78" width="4" height="10" fill="#00FF66"/>
    <rect x="556" y="78" width="4" height="10" fill="#00FF66"/>
    <rect x="562" y="78" width="4" height="10" fill="#00FF66"/>
    <rect x="568" y="78" width="4" height="10" fill="#00FF66"/>
    <rect x="574" y="78" width="4" height="10" fill="#0a3d1f"/>
    <rect x="580" y="78" width="4" height="10" fill="#0a3d1f"/>
    <rect x="586" y="78" width="4" height="10" fill="#0a3d1f"/>
    <rect x="592" y="78" width="4" height="10" fill="#0a3d1f"/>
    <rect x="598" y="78" width="4" height="10" fill="#0a3d1f"/>
    <rect x="604" y="78" width="4" height="10" fill="#0a3d1f"/>
    <rect x="610" y="78" width="4" height="10" fill="#0a3d1f"/>
    <text x="340" y="104" font-family="Courier New, monospace" font-size="12" fill="#00FF66">FastAPI / Backend</text>
    <rect x="340" y="110" width="4" height="10" fill="#00FF66"/>
    <rect x="346" y="110" width="4" height="10" fill="#00FF66"/>
    <rect x="352" y="110" width="4" height="10" fill="#00FF66"/>
    <rect x="358" y="110" width="4" height="10" fill="#00FF66"/>
    <rect x="364" y="110" width="4" height="10" fill="#00FF66"/>
    <rect x="370" y="110" width="4" height="10" fill="#00FF66"/>
    <rect x="376" y="110" width="4" height="10" fill="#00FF66"/>
    <rect x="382" y="110" width="4" height="10" fill="#00FF66"/>
    <rect x="388" y="110" width="4" height="10" fill="#00FF66"/>
    <rect x="394" y="110" width="4" height="10" fill="#00FF66"/>
    <rect x="400" y="110" width="4" height="10" fill="#00FF66"/>
    <rect x="406" y="110" width="4" height="10" fill="#00FF66"/>
    <rect x="412" y="110" width="4" height="10" fill="#00FF66"/>
    <rect x="418" y="110" width="4" height="10" fill="#00FF66"/>
    <rect x="424" y="110" width="4" height="10" fill="#00FF66"/>
    <rect x="430" y="110" width="4" height="10" fill="#00FF66"/>
    <rect x="436" y="110" width="4" height="10" fill="#00FF66"/>
    <rect x="442" y="110" width="4" height="10" fill="#00FF66"/>
    <rect x="448" y="110" width="4" height="10" fill="#00FF66"/>
    <rect x="454" y="110" width="4" height="10" fill="#00FF66"/>
    <rect x="460" y="110" width="4" height="10" fill="#00FF66"/>
    <rect x="466" y="110" width="4" height="10" fill="#00FF66"/>
    <rect x="472" y="110" width="4" height="10" fill="#00FF66"/>
    <rect x="478" y="110" width="4" height="10" fill="#00FF66"/>
    <rect x="484" y="110" width="4" height="10" fill="#00FF66"/>
    <rect x="490" y="110" width="4" height="10" fill="#00FF66"/>
    <rect x="496" y="110" width="4" height="10" fill="#00FF66"/>
    <rect x="502" y="110" width="4" height="10" fill="#00FF66"/>
    <rect x="508" y="110" width="4" height="10" fill="#00FF66"/>
    <rect x="514" y="110" width="4" height="10" fill="#00FF66"/>
    <rect x="520" y="110" width="4" height="10" fill="#00FF66"/>
    <rect x="526" y="110" width="4" height="10" fill="#00FF66"/>
    <rect x="532" y="110" width="4" height="10" fill="#00FF66"/>
    <rect x="538" y="110" width="4" height="10" fill="#00FF66"/>
    <rect x="544" y="110" width="4" height="10" fill="#00FF66"/>
    <rect x="550" y="110" width="4" height="10" fill="#00FF66"/>
    <rect x="556" y="110" width="4" height="10" fill="#0a3d1f"/>
    <rect x="562" y="110" width="4" height="10" fill="#0a3d1f"/>
    <rect x="568" y="110" width="4" height="10" fill="#0a3d1f"/>
    <rect x="574" y="110" width="4" height="10" fill="#0a3d1f"/>
    <rect x="580" y="110" width="4" height="10" fill="#0a3d1f"/>
    <rect x="586" y="110" width="4" height="10" fill="#0a3d1f"/>
    <rect x="592" y="110" width="4" height="10" fill="#0a3d1f"/>
    <rect x="598" y="110" width="4" height="10" fill="#0a3d1f"/>
    <rect x="604" y="110" width="4" height="10" fill="#0a3d1f"/>
    <rect x="610" y="110" width="4" height="10" fill="#0a3d1f"/>
    <text x="340" y="136" font-family="Courier New, monospace" font-size="12" fill="#00FF66">Guitar &amp; Audio DSP</text>
    <rect x="340" y="142" width="4" height="10" fill="#00FF66"/>
    <rect x="346" y="142" width="4" height="10" fill="#00FF66"/>
    <rect x="352" y="142" width="4" height="10" fill="#00FF66"/>
    <rect x="358" y="142" width="4" height="10" fill="#00FF66"/>
    <rect x="364" y="142" width="4" height="10" fill="#00FF66"/>
    <rect x="370" y="142" width="4" height="10" fill="#00FF66"/>
    <rect x="376" y="142" width="4" height="10" fill="#00FF66"/>
    <rect x="382" y="142" width="4" height="10" fill="#00FF66"/>
    <rect x="388" y="142" width="4" height="10" fill="#00FF66"/>
    <rect x="394" y="142" width="4" height="10" fill="#00FF66"/>
    <rect x="400" y="142" width="4" height="10" fill="#00FF66"/>
    <rect x="406" y="142" width="4" height="10" fill="#00FF66"/>
    <rect x="412" y="142" width="4" height="10" fill="#00FF66"/>
    <rect x="418" y="142" width="4" height="10" fill="#00FF66"/>
    <rect x="424" y="142" width="4" height="10" fill="#00FF66"/>
    <rect x="430" y="142" width="4" height="10" fill="#00FF66"/>
    <rect x="436" y="142" width="4" height="10" fill="#00FF66"/>
    <rect x="442" y="142" width="4" height="10" fill="#00FF66"/>
    <rect x="448" y="142" width="4" height="10" fill="#00FF66"/>
    <rect x="454" y="142" width="4" height="10" fill="#00FF66"/>
    <rect x="460" y="142" width="4" height="10" fill="#00FF66"/>
    <rect x="466" y="142" width="4" height="10" fill="#00FF66"/>
    <rect x="472" y="142" width="4" height="10" fill="#00FF66"/>
    <rect x="478" y="142" width="4" height="10" fill="#00FF66"/>
    <rect x="484" y="142" width="4" height="10" fill="#00FF66"/>
    <rect x="490" y="142" width="4" height="10" fill="#00FF66"/>
    <rect x="496" y="142" width="4" height="10" fill="#00FF66"/>
    <rect x="502" y="142" width="4" height="10" fill="#00FF66"/>
    <rect x="508" y="142" width="4" height="10" fill="#00FF66"/>
    <rect x="514" y="142" width="4" height="10" fill="#00FF66"/>
    <rect x="520" y="142" width="4" height="10" fill="#00FF66"/>
    <rect x="526" y="142" width="4" height="10" fill="#00FF66"/>
    <rect x="532" y="142" width="4" height="10" fill="#00FF66"/>
    <rect x="538" y="142" width="4" height="10" fill="#00FF66"/>
    <rect x="544" y="142" width="4" height="10" fill="#00FF66"/>
    <rect x="550" y="142" width="4" height="10" fill="#00FF66"/>
    <rect x="556" y="142" width="4" height="10" fill="#00FF66"/>
    <rect x="562" y="142" width="4" height="10" fill="#00FF66"/>
    <rect x="568" y="142" width="4" height="10" fill="#0a3d1f"/>
    <rect x="574" y="142" width="4" height="10" fill="#0a3d1f"/>
    <rect x="580" y="142" width="4" height="10" fill="#0a3d1f"/>
    <rect x="586" y="142" width="4" height="10" fill="#0a3d1f"/>
    <rect x="592" y="142" width="4" height="10" fill="#0a3d1f"/>
    <rect x="598" y="142" width="4" height="10" fill="#0a3d1f"/>
    <rect x="604" y="142" width="4" height="10" fill="#0a3d1f"/>
    <rect x="610" y="142" width="4" height="10" fill="#0a3d1f"/>
    <text x="340" y="168" font-family="Courier New, monospace" font-size="12" fill="#00FF66">Leadership (CR, E-Cell)</text>
    <rect x="340" y="174" width="4" height="10" fill="#00FF66"/>
    <rect x="346" y="174" width="4" height="10" fill="#00FF66"/>
    <rect x="352" y="174" width="4" height="10" fill="#00FF66"/>
    <rect x="358" y="174" width="4" height="10" fill="#00FF66"/>
    <rect x="364" y="174" width="4" height="10" fill="#00FF66"/>
    <rect x="370" y="174" width="4" height="10" fill="#00FF66"/>
    <rect x="376" y="174" width="4" height="10" fill="#00FF66"/>
    <rect x="382" y="174" width="4" height="10" fill="#00FF66"/>
    <rect x="388" y="174" width="4" height="10" fill="#00FF66"/>
    <rect x="394" y="174" width="4" height="10" fill="#00FF66"/>
    <rect x="400" y="174" width="4" height="10" fill="#00FF66"/>
    <rect x="406" y="174" width="4" height="10" fill="#00FF66"/>
    <rect x="412" y="174" width="4" height="10" fill="#00FF66"/>
    <rect x="418" y="174" width="4" height="10" fill="#00FF66"/>
    <rect x="424" y="174" width="4" height="10" fill="#00FF66"/>
    <rect x="430" y="174" width="4" height="10" fill="#00FF66"/>
    <rect x="436" y="174" width="4" height="10" fill="#00FF66"/>
    <rect x="442" y="174" width="4" height="10" fill="#00FF66"/>
    <rect x="448" y="174" width="4" height="10" fill="#00FF66"/>
    <rect x="454" y="174" width="4" height="10" fill="#00FF66"/>
    <rect x="460" y="174" width="4" height="10" fill="#00FF66"/>
    <rect x="466" y="174" width="4" height="10" fill="#00FF66"/>
    <rect x="472" y="174" width="4" height="10" fill="#00FF66"/>
    <rect x="478" y="174" width="4" height="10" fill="#00FF66"/>
    <rect x="484" y="174" width="4" height="10" fill="#00FF66"/>
    <rect x="490" y="174" width="4" height="10" fill="#00FF66"/>
    <rect x="496" y="174" width="4" height="10" fill="#00FF66"/>
    <rect x="502" y="174" width="4" height="10" fill="#00FF66"/>
    <rect x="508" y="174" width="4" height="10" fill="#00FF66"/>
    <rect x="514" y="174" width="4" height="10" fill="#00FF66"/>
    <rect x="520" y="174" width="4" height="10" fill="#00FF66"/>
    <rect x="526" y="174" width="4" height="10" fill="#00FF66"/>
    <rect x="532" y="174" width="4" height="10" fill="#00FF66"/>
    <rect x="538" y="174" width="4" height="10" fill="#00FF66"/>
    <rect x="544" y="174" width="4" height="10" fill="#00FF66"/>
    <rect x="550" y="174" width="4" height="10" fill="#00FF66"/>
    <rect x="556" y="174" width="4" height="10" fill="#00FF66"/>
    <rect x="562" y="174" width="4" height="10" fill="#00FF66"/>
    <rect x="568" y="174" width="4" height="10" fill="#00FF66"/>
    <rect x="574" y="174" width="4" height="10" fill="#00FF66"/>
    <rect x="580" y="174" width="4" height="10" fill="#00FF66"/>
    <rect x="586" y="174" width="4" height="10" fill="#0a3d1f"/>
    <rect x="592" y="174" width="4" height="10" fill="#0a3d1f"/>
    <rect x="598" y="174" width="4" height="10" fill="#0a3d1f"/>
    <rect x="604" y="174" width="4" height="10" fill="#0a3d1f"/>
    <rect x="610" y="174" width="4" height="10" fill="#0a3d1f"/>
    <text x="340" y="200" font-family="Courier New, monospace" font-size="12" fill="#00FF66">Product Design</text>
    <rect x="340" y="206" width="4" height="10" fill="#00FF66"/>
    <rect x="346" y="206" width="4" height="10" fill="#00FF66"/>
    <rect x="352" y="206" width="4" height="10" fill="#00FF66"/>
    <rect x="358" y="206" width="4" height="10" fill="#00FF66"/>
    <rect x="364" y="206" width="4" height="10" fill="#00FF66"/>
    <rect x="370" y="206" width="4" height="10" fill="#00FF66"/>
    <rect x="376" y="206" width="4" height="10" fill="#00FF66"/>
    <rect x="382" y="206" width="4" height="10" fill="#00FF66"/>
    <rect x="388" y="206" width="4" height="10" fill="#00FF66"/>
    <rect x="394" y="206" width="4" height="10" fill="#00FF66"/>
    <rect x="400" y="206" width="4" height="10" fill="#00FF66"/>
    <rect x="406" y="206" width="4" height="10" fill="#00FF66"/>
    <rect x="412" y="206" width="4" height="10" fill="#00FF66"/>
    <rect x="418" y="206" width="4" height="10" fill="#00FF66"/>
    <rect x="424" y="206" width="4" height="10" fill="#00FF66"/>
    <rect x="430" y="206" width="4" height="10" fill="#00FF66"/>
    <rect x="436" y="206" width="4" height="10" fill="#00FF66"/>
    <rect x="442" y="206" width="4" height="10" fill="#00FF66"/>
    <rect x="448" y="206" width="4" height="10" fill="#00FF66"/>
    <rect x="454" y="206" width="4" height="10" fill="#00FF66"/>
    <rect x="460" y="206" width="4" height="10" fill="#00FF66"/>
    <rect x="466" y="206" width="4" height="10" fill="#00FF66"/>
    <rect x="472" y="206" width="4" height="10" fill="#00FF66"/>
    <rect x="478" y="206" width="4" height="10" fill="#00FF66"/>
    <rect x="484" y="206" width="4" height="10" fill="#00FF66"/>
    <rect x="490" y="206" width="4" height="10" fill="#00FF66"/>
    <rect x="496" y="206" width="4" height="10" fill="#00FF66"/>
    <rect x="502" y="206" width="4" height="10" fill="#00FF66"/>
    <rect x="508" y="206" width="4" height="10" fill="#00FF66"/>
    <rect x="514" y="206" width="4" height="10" fill="#00FF66"/>
    <rect x="520" y="206" width="4" height="10" fill="#00FF66"/>
    <rect x="526" y="206" width="4" height="10" fill="#00FF66"/>
    <rect x="532" y="206" width="4" height="10" fill="#00FF66"/>
    <rect x="538" y="206" width="4" height="10" fill="#00FF66"/>
    <rect x="544" y="206" width="4" height="10" fill="#00FF66"/>
    <rect x="550" y="206" width="4" height="10" fill="#00FF66"/>
    <rect x="556" y="206" width="4" height="10" fill="#00FF66"/>
    <rect x="562" y="206" width="4" height="10" fill="#0a3d1f"/>
    <rect x="568" y="206" width="4" height="10" fill="#0a3d1f"/>
    <rect x="574" y="206" width="4" height="10" fill="#0a3d1f"/>
    <rect x="580" y="206" width="4" height="10" fill="#0a3d1f"/>
    <rect x="586" y="206" width="4" height="10" fill="#0a3d1f"/>
    <rect x="592" y="206" width="4" height="10" fill="#0a3d1f"/>
    <rect x="598" y="206" width="4" height="10" fill="#0a3d1f"/>
    <rect x="604" y="206" width="4" height="10" fill="#0a3d1f"/>
    <rect x="610" y="206" width="4" height="10" fill="#0a3d1f"/>

  <text x="340" y="235" font-family="Courier New, monospace" font-size="11" fill="#0DAB52" opacity="0.8">&gt; krishkumarvl // building since 2025</text>
</svg>
